PathFileType	4	(X/Y/Z)	44_1_35_p1_0-344_filt_butterworth.trc
DataRate	CameraRate	NumFrames	NumMarkers	Units	OrigDataRate	OrigDataStartFrame	OrigNumFrames
60.0	60.0	7	27	m	60.0	172	344
Frame#	Time	RHip			RKnee			RAnkle			RBigToe			RSmallToe			RHeel			LHip			LKnee			LAnkle			LBigToe			LSmallToe			LHeel			Neck			Head			Nose			RShoulder			RElbow			RWrist			RThumb			RIndex			RPinky			LShoulder			LElbow			LWrist			LThumb			LIndex			LPinky			
		X1	Y1	Z1	X2	Y2	Z2	X3	Y3	Z3	X4	Y4	Z4	X5	Y5	Z5	X6	Y6	Z6	X7	Y7	Z7	X8	Y8	Z8	X9	Y9	Z9	X10	Y10	Z10	X11	Y11	Z11	X12	Y12	Z12	X13	Y13	Z13	X14	Y14	Z14	X15	Y15	Z15	X16	Y16	Z16	X17	Y17	Z17	X18	Y18	Z18	X19	Y19	Z19	X20	Y20	Z20	X21	Y21	Z21	X22	Y22	Z22	X23	Y23	Z23	X24	Y24	Z24	X25	Y25	Z25	X26	Y26	Z26	X27	Y27	Z27	
172	2.8666666666666667	0.32402064111385004	0.5011003592384059	1.0183039127319424	0.34521632822876447	0.5031507922851951	1.4016979057748828	0.36303574761652746	0.6578919374206319	1.8611246885589365	0.31589616073281357	0.48348980374145106	1.8965512499642712	0.38843120602085285	0.4704602783822587	1.880858958738633	0.33020052027810637	0.7522125624230782	1.9312121263784485	0.12270683044123143	0.5299561870336617	1.0467942699231325	0.11516727570333661	0.5713229736791441	1.4456759618454442	0.14258241366885369	0.6364332115160746	1.8629002395508938	0.14576645814327052	0.44817069988933034	1.8741572149805577	0.09758539561965086	0.5061594556783507	1.8887950543880032	0.15967099516159486	0.7146587767810497	1.9261809161862637	0.19732466780934788	0.37506979159595066	0.4985177939028045	0.19370282730185645	0.27997122428570786	0.2703650787612919	0.20813419529318034	0.25705915294112963	0.38437206513049255	0.33879051653029235	0.3805093627905393	0.5926949148994269	0.36036822957605946	0.39924191278715426	0.8640680889015174	0.2624399596654098	0.37934980130869567	1.0526742900119714	0.22540878980069845	0.3500132965824068	1.1362526781408144	0.22614906251265865	0.35045204543546343	1.1454722845284089	0.2229461002213498	0.36232395490102964	1.1535924506969697	0.05161094189723767	0.3991921079304178	0.5957804317780898	0.05149316235384205	0.41661915896223434	0.862372050037659	0.15424416385954662	0.3907259976676243	1.0514480272224673	0.24313418555809022	0.3464005534786414	1.0853576793574455	0.23921642216505876	0.34154254377234694	1.1391961632203922	0.19589079185637534	0.3754128473396247	1.1595569943283204
173	2.8833333333333333	0.32390127329862833	0.5014717971557201	1.0175837476243865	0.34723706273099286	0.5079782061735872	1.4007534480317505	0.3629920333552493	0.6578537947376444	1.8611513742159467	0.31589126591362204	0.48346042566008596	1.8965281124445725	0.38832905171698173	0.4701218758115481	1.8806642874019386	0.33014812675289534	0.7522038928931433	1.931332972849248	0.12219714471430641	0.5290496601780047	1.04788675164628	0.1156382243962745	0.5715565409016414	1.4438922347592873	0.14229625308707258	0.6370058211163865	1.8633054832433391	0.14528374731851362	0.44899866971715896	1.8740158838653511	0.09735600798273926	0.506605374124351	1.890044787002524	0.1596739437375919	0.7147276721964664	1.926199271045065	0.1973377806553535	0.37511910061446263	0.4985086525042348	0.19367516342179444	0.2799279743606636	0.2703779514993303	0.20813519144758413	0.25725674798915166	0.3843848753846046	0.33879079342429286	0.38053564738574364	0.5926930731996659	0.36060963660540746	0.3998245784092844	0.8654451080143473	0.2624349062802861	0.37943958544783557	1.0526605106664997	0.22533541184997324	0.35023727260328663	1.1364297456750576	0.22616332110575463	0.3506117754071353	1.1457368659250897	0.2229343250780183	0.3625588890290268	1.1535725314338905	0.05162544213801139	0.3992241371766327	0.5957832823660032	0.05158589537376276	0.41638013060600837	0.8632186842075381	0.15426222719550234	0.3908347233539752	1.051461569601277	0.24298333226987814	0.34643595026844487	1.0853043110980882	0.23904635371641791	0.34195639185087	1.13958888202252	0.19358928840451103	0.37498200043834906	1.159561368055719
174	2.9	0.32383203775325675	0.5016512515968967	1.0171936836779516	0.34900243707396417	0.5140033543491517	1.4009191571577637	0.36295367135627127	0.6577540882754193	1.8611441030627958	0.31588885604563505	0.48345077539187736	1.896537232748138	0.3882851671495554	0.46988445499737913	1.8805220067845865	0.3301081798708736	0.7521243020887233	1.9314079877315793	0.12114189330827194	0.5271802734513464	1.048116567972033	0.1168975666786951	0.5721598024881288	1.4423619475914504	0.14215195224976945	0.6373953309728315	1.8634459298319155	0.14528812575827066	0.4495451161510828	1.8741552366656984	0.09684877024510156	0.5077290748253043	1.8910203377084025	0.1596863412409406	0.7148054229057523	1.9261866014707931	0.19735042939708838	0.37515170526839625	0.4985061625811378	0.19358591460522123	0.2798649800336088	0.27043760239329556	0.20808090418065747	0.25754807738323043	0.38440527727100504	0.33879547041049357	0.3805517594017805	0.592705651707307	0.3607718093348598	0.4002861319031603	0.8665495992309183	0.2624325943610607	0.3794893767026588	1.052624114915969	0.22473360134079728	0.3489494394238933	1.1366158613613573	0.2256320029261969	0.3492750674965354	1.1454763997244244	0.2232936305047409	0.3629699973310122	1.1536365745387143	0.05163248903793745	0.39922659557702306	0.5957832776076114	0.05168419115332556	0.4161630095992121	0.8641214636104437	0.15414079040436518	0.3907061060080846	1.051279664128506	0.2433094648422665	0.345119503129587	1.0852764678286226	0.23886730411411963	0.3419044533333291	1.1396635744849106	0.19146878892064545	0.3748438190681004	1.1595534097847129
175	2.9166666666666665	0.32382844536304267	0.5017499528299251	1.0171316491779923	0.3501445655936461	0.5182613605160782	1.4016129504388364	0.3629342750093398	0.6576617989000518	1.8611143768880298	0.3158816846029827	0.48344123057788957	1.896564865462732	0.38829921965050473	0.4697833612540097	1.8804564179191356	0.3301092210470689	0.7520698995228929	1.9314210874582063	0.119902251144655	0.5247853497101308	1.0472882001809107	0.11839066619100602	0.5730005278606454	1.4411797565921618	0.1421320051618791	0.6375469463944631	1.8634728639412963	0.14553999629551168	0.44958110477256036	1.874180648544886	0.09582971106628539	0.5084911416758711	1.8914541991628036	0.159688648608355	0.7148574276855533	1.9261478953879516	0.19735810049215477	0.3751648415232093	0.49850244278336486	0.19350285289855262	0.2798384467931705	0.27052231711107494	0.2080700330292835	0.25752182674134055	0.3844129117062358	0.33880128724855296	0.3805547073890979	0.5927581732917214	0.36083580460156484	0.400523523842297	0.8670814265073281	0.2624367852600211	0.3795227984071802	1.0525957197963502	0.22338272276758586	0.34583730725379785	1.1368155431738334	0.22442525569736566	0.346154656531218	1.1446897166824943	0.2242344427480022	0.3634519527606284	1.1537337870902922	0.05163114672654222	0.39921467402602945	0.5957845118319687	0.051740215003322335	0.41605993019001436	0.8645685936809472	0.15399342798040727	0.3907884032169896	1.0511461043321515	0.2442849927477756	0.34143797776202034	1.0852111028986025	0.23863463752875774	0.34132394452895437	1.1393953375681873	0.1908624296363975	0.3750270893378065	1.159554101832958
176	2.933333333333333	0.3238845516809334	0.5019628972475905	1.0172176238817958	0.35049816420896557	0.5185906730834956	1.4019289702152982	0.3629082422093327	0.6576135071975195	1.8610935246593967	0.31586564831278663	0.48339831763706353	1.8965749021452571	0.3883247646257683	0.4697247479466666	1.880429237405988	0.33012882719413916	0.752041388819561	1.9314173689149854	0.11896366504537667	0.5222937641116211	1.0459935454819669	0.11930729378340854	0.5735502380663019	1.44026300209977	0.14211325880769135	0.6376030648613851	1.8636270431886262	0.1459395491464282	0.44837665733227194	1.8735857049256475	0.09471397238520952	0.5062141369706213	1.890295752688968	0.15964013523369686	0.714885451808349	1.926053842386522	0.19736076926510027	0.3751773458181439	0.4984917133866207	0.19367850782790008	0.279954594800769	0.27046674727675896	0.20840458012356902	0.2562963596307775	0.38438400616612345	0.3388022063854881	0.3805459557947819	0.5928415176637516	0.36085160561160795	0.40063686684687366	0.867250868053076	0.2624463508869593	0.37955134224913056	1.0525685785758447	0.221766804045564	0.3416899017340494	1.136693341936576	0.22288509283971517	0.3421521288162998	1.1436688882252815	0.22547880588672461	0.36379412785564197	1.1537893593507058	0.051626545071893404	0.39922569499308946	0.5957871572978588	0.051759791349432496	0.4160389240481565	0.8646392302688741	0.15385428529154296	0.39074774290507436	1.0511029788340542	0.24561479427295482	0.3363289806472235	1.0850643461097484	0.23835757678902234	0.34072289431324143	1.1387905497374886	0.19127851867520185	0.37535850841813895	1.1595885049183188
177	2.95	0.3239650107612584	0.502318559754393	1.0173111674205402	0.34983734079266726	0.5149981363359306	1.4012111986423958	0.3628493905264557	0.6576453847154744	1.8611218332388115	0.31584223509103515	0.48331648255179593	1.896553301578405	0.3883181348076947	0.4696222168110218	1.88038070071698	0.3301081801273602	0.7520125801407436	1.931434603634416	0.11850471887136327	0.5196685814204115	1.0448467396359185	0.11945507898580698	0.5734900652236318	1.4395213277463406	0.14201182307624993	0.6376974223996242	1.864192560979968	0.14650857627500405	0.44518691896408896	1.8719928093169242	0.09414942042445885	0.5004367389231023	1.8874148980336232	0.15951170979568774	0.7149361419262448	1.9259262569573175	0.19736026124386497	0.37520049255231536	0.49847335557720696	0.19451355975900725	0.28028497481142184	0.26997398093646274	0.20943758735228532	0.2532762873314839	0.38430685557729316	0.33878690698064523	0.38055611224501246	0.5928348482638661	0.36084009050098703	0.4006633223391398	0.8671959943912741	0.26245714444169305	0.37953818278460016	1.0525250456812867	0.22086009435105608	0.3383065223399417	1.1358577039837026	0.2219216019838063	0.33911882720893527	1.1429051522501052	0.22642327724640754	0.36390352960959516	1.1537942305507924	0.05162436945565178	0.3992730161392345	0.5957863306348994	0.051760484145669125	0.4160381517295103	0.8645763296399358	0.15387516797807524	0.3895346209306086	1.051140155323985	0.24672200449554438	0.3321999718899777	1.0849195764420068	0.23819199079129258	0.3406278789357847	1.1380686570051375	0.19181759977305463	0.37529232017061637	1.1596534654354556
178	2.966666666666667	0.3239300256820791	0.5023436712732305	1.0172763878990443	0.34781642596513956	0.5095160411546045	1.39937745028193	0.3627674829182842	0.6577722795277252	1.8612048174877096	0.3158180375563377	0.48321609436746726	1.896519708838757	0.38826776318534584	0.4694626277934399	1.8802782846035384	0.3299925476349992	0.7520668359937107	1.9314865078872527	0.11835175638821858	0.5172501226580453	1.0439532576315895	0.11926628647319687	0.573134120313528	1.4390810421410014	0.14188690746106722	0.6378037284419358	1.8653400507621711	0.14743485712533136	0.4409573127469521	1.8698972648475107	0.09418181249031408	0.49462411915399085	1.8845445783869865	0.1593913143865313	0.7150261843670641	1.9259106217640272	0.19735541852939462	0.3752197439884543	0.49845223005495	0.19632910562688113	0.280726709813185	0.26891906574692925	0.21120021079210896	0.24943462058427612	0.3841914520232644	0.338735054351063	0.3806659356127562	0.5924663458164731	0.36076236928528965	0.4004447382504736	0.8666291737968101	0.2624708296577206	0.37945228506792383	1.0524802783545684	0.22128741439506053	0.3366535733352358	1.1343767713915778	0.2224089195203795	0.3378675611081769	1.142589541359902	0.22679628902761576	0.363735063084757	1.1537887495789023	0.051621222642614636	0.39932500775837926	0.5957855033925851	0.05175083854390106	0.41601080877610475	0.8645067446692979	0.15441531038451156	0.3862346840170604	1.0512832579633258	0.2473537848579067	0.33088372325754084	1.0850448170337261	0.23832249930256919	0.34103187320721046	1.1378245078062035	0.192493433517274	0.37381019597741844	1.1597527278320137
